# xmcd
# 
# Track frame offsets:
#     150
#     24350
#     38214
#     47380
#     60446
#     86587
#     99675
#     130026
#     141234
#     183380
# 
# Disc length: 2705
# 
# Revision: 0
# Processed by: cddbd v1.5.2PL0 Copyright (c) Steve Scherf et al.
# Submitted via: fre:ac v1.0.31
# 
DISCID=7b0a8f0a
DTITLE=Various Artist - COFFEE BREAK JAZZ
DYEAR=0
DGENRE=Jazz
TTITLE0=Eliane Elias - The Girl From Ipanema
TTITLE1=Chet Baker - But Not For Me
TTITLE2=Nancy Wilson - Wives And Lovers
TTITLE3=Ron Carter - It's The Time
TTITLE4=Michel Petrucciani - Looking Up
TTITLE5=Duke Pearson - Lamento
TTITLE6=Cannonball Adderley - Corcovado
TTITLE7=Kenny Drew - Stella By Starlight
TTITLE8=Herbie Hancock - Dolphin Dance
TTITLE9=High Five - Some Day My Prince Will Come
EXTD=
EXTT0=
EXTT1=
EXTT2=
EXTT3=
EXTT4=
EXTT5=
EXTT6=
EXTT7=
EXTT8=
EXTT9=
PLAYORDER=
